<svg id="progress_icons" data-name="progress icons" xmlns="http://www.w3.org/2000/svg" width="112.02" height="94.3" viewBox="0 0 112.02 94.3"><defs><style>.cls-1{fill:#bcf8f1;}</style></defs><path class="cls-1" d="M56.37,11.27A36.55,36.55,0,1,0,92.92,47.82,36.59,36.59,0,0,0,56.37,11.27Zm0,69A32.47,32.47,0,1,1,88.84,47.82,32.5,32.5,0,0,1,56.37,80.29Z"/><path class="cls-1" d="M55.82,31.83a6,6,0,1,0-6-6A6,6,0,0,0,55.82,31.83Zm0-8.52a2.51,2.51,0,1,1-2.51,2.51A2.51,2.51,0,0,1,55.82,23.31Z"/><path class="cls-1" d="M73.08,29.52,61.27,33.81H50.91L39.1,29.52a4.26,4.26,0,0,0-5.29,2,4.16,4.16,0,0,0,2.32,5.72L47,41.21a1.06,1.06,0,0,1,.69,1V54.31L44.8,69.38A4.82,4.82,0,0,0,48.28,75,4.73,4.73,0,0,0,54,71.37L56.1,62.3l2.07,9a4.71,4.71,0,0,0,2.08,3.09,4.65,4.65,0,0,0,2.54.75A4.92,4.92,0,0,0,63.93,75a4.82,4.82,0,0,0,3.48-5.63L64.55,54.31V42.2a1.07,1.07,0,0,1,.7-1l10.8-3.92a4.16,4.16,0,0,0,2.32-5.72A4.26,4.26,0,0,0,73.08,29.52Zm2.16,4.1a.68.68,0,0,1-.38.37L64.05,37.92a4.57,4.57,0,0,0-3,4.28V54.47L64,70a1.34,1.34,0,0,1-.87,1.57,1.2,1.2,0,0,1-1-.15,1.28,1.28,0,0,1-.55-.87l-3.21-14a2.32,2.32,0,0,0-2.28-1.82h0a2.33,2.33,0,0,0-2.28,1.82L50.6,70.65a1.2,1.2,0,0,1-1.49.95A1.34,1.34,0,0,1,48.24,70l2.91-15.4V42.2a4.57,4.57,0,0,0-3-4.28L37.32,34a.66.66,0,0,1-.36-.91.78.78,0,0,1,.94-.28l12.4,4.51H61.88l12.4-4.51a.78.78,0,0,1,.94.28h0A.68.68,0,0,1,75.24,33.62Z"/></svg>