<svg xmlns="http://www.w3.org/2000/svg" width="85.84" height="49.91" viewBox="0 0 85.84 49.91"><defs><style>.cls-1{fill:#bcf8f1;}</style></defs><g id="Layer_2" data-name="Layer 2"><g id="final_icons" data-name="final icons"><path class="cls-1" d="M46.4,3.94a3.95,3.95,0,0,0-7.89,0c.81,12,2.41,24.78,3.74,25.84C43.58,28.74,45.39,15.93,46.4,3.94Z"/><path class="cls-1" d="M54.44,19.29a1.66,1.66,0,0,0-.87-.95,1.86,1.86,0,0,0-.87-.15,2.16,2.16,0,0,0-.44.1,1.65,1.65,0,0,0-.95.9,68.77,68.77,0,0,0-3.6,12,70.65,70.65,0,0,0,6.73-10.61A1.7,1.7,0,0,0,54.44,19.29Z"/><path class="cls-1" d="M73.28,12.09a3.9,3.9,0,0,0-5.55.37c-7.2,9.59-14.39,20.37-14.08,22,1.68.11,11.45-8.3,20-16.84A3.94,3.94,0,0,0,73.28,12.09Z"/><path class="cls-1" d="M69.52,34.7a1.66,1.66,0,0,0,0-1.31,1.63,1.63,0,0,0-.93-.91,1.66,1.66,0,0,0-1.31,0A71.32,71.32,0,0,0,56.66,39a68.38,68.38,0,0,0,12.09-3.36A1.71,1.71,0,0,0,69.52,34.7Z"/><path class="cls-1" d="M82,40.48v-.11c-11.3,1.21-23.38,3.2-24.32,4.47,1,1.22,13.21,2.49,24.59,3a3.84,3.84,0,0,0,2.58-1.18A3.67,3.67,0,0,0,82,40.48Z"/><path class="cls-1" d="M32.61,18.13a1.28,1.28,0,0,0-.43-.1,1.57,1.57,0,0,0-.88.12,1.75,1.75,0,0,0-.91,1,1.62,1.62,0,0,0,0,1.26,71.08,71.08,0,0,0,6.54,10.72,70,70,0,0,0-3.36-12A1.71,1.71,0,0,0,32.61,18.13Z"/><path class="cls-1" d="M14.56,10.65h0a3.94,3.94,0,0,0-3.36,6.46c8.45,8.58,18.07,17.18,19.75,17.18C31.24,32.65,24.26,21.74,17.2,12A3.94,3.94,0,0,0,14.56,10.65Z"/><path class="cls-1" d="M16,35.28a71.17,71.17,0,0,0,12,3.58,68.2,68.2,0,0,0-10.59-6.69,1.66,1.66,0,0,0-1.2-.06,1.7,1.7,0,0,0-1.1,2.14A1.62,1.62,0,0,0,16,35.28Z"/><path class="cls-1" d="M1.21,40.71A3.63,3.63,0,0,0,0,43.28a3.74,3.74,0,0,0,3.51,3.93c11.4-.34,23.61-1.4,24.65-2.6-.94-1.31-13-3.49-24.26-4.88A3.69,3.69,0,0,0,1.21,40.71Z"/><path class="cls-1" d="M43.14,39a5.45,5.45,0,1,0,5.44,5.44A5.45,5.45,0,0,0,43.14,39Z"/></g></g></svg>